<svg width="120" height="20" viewBox="0 0 120 20" fill="none" xmlns="http://www.w3.org/2000/svg">
<mask id="path-1-inside-1" fill="white">
<path d="M8.9271 0.665893L6.48599 5.61542L1.02432 6.41168C0.0448775 6.55373 -0.347645 7.76121 0.362634 8.4528L4.31403 12.3033L3.37945 17.7425C3.21123 18.7257 4.24674 19.4621 5.11403 19.0023L10 16.4341L14.886 19.0023C15.7533 19.4584 16.7888 18.7257 16.6206 17.7425L15.686 12.3033L19.6374 8.4528C20.3476 7.76121 19.9551 6.55373 18.9757 6.41168L13.514 5.61542L11.0729 0.665893C10.6355 -0.216348 9.36823 -0.227563 8.9271 0.665893Z"/>
</mask>
<path d="M8.9271 0.665893L6.48599 5.61542L1.02432 6.41168C0.0448775 6.55373 -0.347645 7.76121 0.362634 8.4528L4.31403 12.3033L3.37945 17.7425C3.21123 18.7257 4.24674 19.4621 5.11403 19.0023L10 16.4341L14.886 19.0023C15.7533 19.4584 16.7888 18.7257 16.6206 17.7425L15.686 12.3033L19.6374 8.4528C20.3476 7.76121 19.9551 6.55373 18.9757 6.41168L13.514 5.61542L11.0729 0.665893C10.6355 -0.216348 9.36823 -0.227563 8.9271 0.665893Z" fill="#FFB803" stroke="black" stroke-width="0.373831" mask="url(#path-1-inside-1)"/>
<mask id="path-2-inside-2" fill="white">
<path d="M33.9271 0.665893L31.486 5.61542L26.0243 6.41168C25.0449 6.55373 24.6524 7.76121 25.3626 8.4528L29.314 12.3033L28.3795 17.7425C28.2112 18.7257 29.2467 19.4621 30.114 19.0023L35 16.4341L39.886 19.0023C40.7533 19.4584 41.7888 18.7257 41.6206 17.7425L40.686 12.3033L44.6374 8.4528C45.3476 7.76121 44.9551 6.55373 43.9757 6.41168L38.514 5.61542L36.0729 0.665893C35.6355 -0.216348 34.3682 -0.227563 33.9271 0.665893Z"/>
</mask>
<path d="M33.9271 0.665893L31.486 5.61542L26.0243 6.41168C25.0449 6.55373 24.6524 7.76121 25.3626 8.4528L29.314 12.3033L28.3795 17.7425C28.2112 18.7257 29.2467 19.4621 30.114 19.0023L35 16.4341L39.886 19.0023C40.7533 19.4584 41.7888 18.7257 41.6206 17.7425L40.686 12.3033L44.6374 8.4528C45.3476 7.76121 44.9551 6.55373 43.9757 6.41168L38.514 5.61542L36.0729 0.665893C35.6355 -0.216348 34.3682 -0.227563 33.9271 0.665893Z" fill="#FFB803" stroke="black" stroke-width="0.373831" mask="url(#path-2-inside-2)"/>
<mask id="path-3-inside-3" fill="white">
<path d="M58.9271 0.665893L56.486 5.61542L51.0243 6.41168C50.0449 6.55373 49.6524 7.76121 50.3626 8.4528L54.314 12.3033L53.3795 17.7425C53.2112 18.7257 54.2467 19.4621 55.114 19.0023L60 16.4341L64.886 19.0023C65.7533 19.4584 66.7888 18.7257 66.6206 17.7425L65.686 12.3033L69.6374 8.4528C70.3476 7.76121 69.9551 6.55373 68.9757 6.41168L63.514 5.61542L61.0729 0.665893C60.6355 -0.216348 59.3682 -0.227563 58.9271 0.665893Z"/>
</mask>
<path d="M58.9271 0.665893L56.486 5.61542L51.0243 6.41168C50.0449 6.55373 49.6524 7.76121 50.3626 8.4528L54.314 12.3033L53.3795 17.7425C53.2112 18.7257 54.2467 19.4621 55.114 19.0023L60 16.4341L64.886 19.0023C65.7533 19.4584 66.7888 18.7257 66.6206 17.7425L65.686 12.3033L69.6374 8.4528C70.3476 7.76121 69.9551 6.55373 68.9757 6.41168L63.514 5.61542L61.0729 0.665893C60.6355 -0.216348 59.3682 -0.227563 58.9271 0.665893Z" fill="#FFB803" stroke="black" stroke-width="0.373831" mask="url(#path-3-inside-3)"/>
<mask id="path-4-inside-4" fill="white">
<path d="M83.9271 0.665893L81.486 5.61542L76.0243 6.41168C75.0449 6.55373 74.6524 7.76121 75.3626 8.4528L79.314 12.3033L78.3795 17.7425C78.2112 18.7257 79.2467 19.4621 80.114 19.0023L85 16.4341L89.886 19.0023C90.7533 19.4584 91.7888 18.7257 91.6206 17.7425L90.686 12.3033L94.6374 8.4528C95.3476 7.76121 94.9551 6.55373 93.9757 6.41168L88.514 5.61542L86.0729 0.665893C85.6355 -0.216348 84.3682 -0.227563 83.9271 0.665893Z"/>
</mask>
<path d="M83.9271 0.665893L81.486 5.61542L76.0243 6.41168C75.0449 6.55373 74.6524 7.76121 75.3626 8.4528L79.314 12.3033L78.3795 17.7425C78.2112 18.7257 79.2467 19.4621 80.114 19.0023L85 16.4341L89.886 19.0023C90.7533 19.4584 91.7888 18.7257 91.6206 17.7425L90.686 12.3033L94.6374 8.4528C95.3476 7.76121 94.9551 6.55373 93.9757 6.41168L88.514 5.61542L86.0729 0.665893C85.6355 -0.216348 84.3682 -0.227563 83.9271 0.665893Z" fill="#FFB803" stroke="black" stroke-width="0.373831" mask="url(#path-4-inside-4)"/>
<mask id="path-5-inside-5" fill="white">
<path d="M118.976 6.39963L113.514 5.60448L111.074 0.664552C110.854 0.223134 110.426 0 109.998 0C109.573 0 109.148 0.220149 108.928 0.664552L106.486 5.6041L101.024 6.39851C100.045 6.5403 99.6524 7.74515 100.362 8.43545L104.314 12.2787L103.379 17.7071C103.246 18.4825 103.865 19.1045 104.558 19.1045C104.742 19.1045 104.931 19.0608 105.113 18.9646L109.999 16.4019L114.885 18.9653C115.066 19.0604 115.255 19.1037 115.438 19.1037C116.132 19.1037 116.752 18.484 116.62 17.7082L115.686 12.2795L119.637 8.43694C120.348 7.74664 119.955 6.54142 118.976 6.39963V6.39963ZM114.433 10.9966L113.757 11.6541L113.917 12.5825L114.645 16.8157L110.834 14.816L109.999 14.378L110.001 2.54254L111.905 6.39664L112.322 7.24104L113.255 7.37687L117.517 7.99739L114.433 10.9966V10.9966Z"/>
</mask>
<path d="M118.976 6.39963L113.514 5.60448L111.074 0.664552C110.854 0.223134 110.426 0 109.998 0C109.573 0 109.148 0.220149 108.928 0.664552L106.486 5.6041L101.024 6.39851C100.045 6.5403 99.6524 7.74515 100.362 8.43545L104.314 12.2787L103.379 17.7071C103.246 18.4825 103.865 19.1045 104.558 19.1045C104.742 19.1045 104.931 19.0608 105.113 18.9646L109.999 16.4019L114.885 18.9653C115.066 19.0604 115.255 19.1037 115.438 19.1037C116.132 19.1037 116.752 18.484 116.62 17.7082L115.686 12.2795L119.637 8.43694C120.348 7.74664 119.955 6.54142 118.976 6.39963V6.39963ZM114.433 10.9966L113.757 11.6541L113.917 12.5825L114.645 16.8157L110.834 14.816L109.999 14.378L110.001 2.54254L111.905 6.39664L112.322 7.24104L113.255 7.37687L117.517 7.99739L114.433 10.9966V10.9966Z" fill="#FFB803" stroke="black" stroke-width="0.373134" mask="url(#path-5-inside-5)"/>
</svg>
